<svg width="40" height="40" viewBox="0 0 40 40" fill="none" xmlns="http://www.w3.org/2000/svg">
<mask id="mask0_3015_9277" style="mask-type:luminance" maskUnits="userSpaceOnUse" x="0" y="0" width="40" height="40">
<path d="M40 0H0V40H40V0Z" fill="white"/>
</mask>
<g mask="url(#mask0_3015_9277)">
<path d="M20 40C31.0457 40 40 31.0457 40 20C40 8.9543 31.0457 0 20 0C8.9543 0 0 8.9543 0 20C0 31.0457 8.9543 40 20 40Z" fill="white"/>
<path d="M20 1.03C30.46 1.03 38.97 9.54 38.97 20C38.97 30.46 30.46 38.97 20 38.97C9.54 38.97 1.03 30.46 1.03 20C1.03 9.54 9.54 1.03 20 1.03ZM20 0C8.95 0 0 8.95 0 20C0 31.05 8.95 40 20 40C31.05 40 40 31.05 40 20C40 8.95 31.05 0 20 0Z" fill="#EBEBF2"/>
<mask id="mask1_3015_9277" style="mask-type:luminance" maskUnits="userSpaceOnUse" x="8" y="8" width="24" height="24">
<path d="M32 8H8V32H32V8Z" fill="white"/>
</mask>
<g mask="url(#mask1_3015_9277)">
<path d="M18.6401 29.9998C18.3301 30.0098 18.0701 29.7798 18.0601 29.4698V22.1598L18.3701 21.4198H15.6801C15.0901 21.4798 14.5701 21.0398 14.5101 20.4598C14.4901 20.2398 14.5401 20.0098 14.6501 19.8198L20.8301 10.2698C20.9401 10.0998 21.1301 9.99981 21.3301 9.99981H21.3601C21.6701 9.98981 21.9301 10.2298 21.9401 10.5398V17.8398L21.6301 18.5798H24.3201C24.9301 18.5498 25.4501 18.9998 25.5101 19.6098V19.6898C25.5101 19.8698 25.4501 20.0398 25.3501 20.1898L19.1701 29.7398C19.0601 29.9098 18.8701 30.0098 18.6701 30.0098H18.6401V29.9998Z" fill="#FFA700"/>
</g>
</g>
</svg>
