<svg width="40" height="40" viewBox="0 0 40 40" fill="none" xmlns="http://www.w3.org/2000/svg">
<g id="ic-upload-img">
<mask id="mask0_939_9952" style="mask-type:luminance" maskUnits="userSpaceOnUse" x="0" y="0" width="40" height="40">
<g id="clippath">
<path id="Vector" d="M40 0H0V40H40V0Z" fill="white"/>
</g>
</mask>
<g mask="url(#mask0_939_9952)">
<g id="Group">
<g id="Ellipse_13132">
<path id="Vector_2" d="M20 40C31.0457 40 40 31.0457 40 20C40 8.9543 31.0457 0 20 0C8.9543 0 0 8.9543 0 20C0 31.0457 8.9543 40 20 40Z" fill="white"/>
<path id="Vector_3" d="M20 1.03C30.46 1.03 38.97 9.54 38.97 20C38.97 30.46 30.46 38.97 20 38.97C9.54 38.97 1.03 30.46 1.03 20C1.03 9.54 9.54 1.03 20 1.03ZM20 0C8.95 0 0 8.95 0 20C0 31.05 8.95 40 20 40C31.05 40 40 31.05 40 20C40 8.95 31.05 0 20 0Z" fill="#EBEBF2"/>
</g>
<g id="Clip path group">
<mask id="mask1_939_9952" style="mask-type:luminance" maskUnits="userSpaceOnUse" x="8" y="8" width="24" height="24">
<g id="clippath-1">
<path id="Vector_4" d="M32 8H8V32H32V8Z" fill="white"/>
</g>
</mask>
<g mask="url(#mask1_939_9952)">
<g id="Group_2">
<g id="ic-add-photo">
<path id="Path_37953" d="M28.97 13.16H26.84V11.03C26.84 10.46 26.38 10 25.81 10H25.78C25.21 10 24.74 10.46 24.74 11.03V13.16H22.63C22.06 13.16 21.6 13.62 21.59 14.19V14.22C21.59 14.79 22.05 15.26 22.62 15.26H24.74V17.37C24.74 17.94 25.2 18.4 25.77 18.4H25.82C26.39 18.4 26.85 17.94 26.85 17.37V15.26H28.98C29.55 15.26 30.01 14.8 30.01 14.23V14.19C30.01 13.62 29.55 13.16 28.98 13.16M23.7 17.38V16.32H22.64C21.49 16.32 20.55 15.4 20.54 14.25V14.2C20.54 13.84 20.64 13.48 20.83 13.17H12.12C10.96 13.17 10.02 14.12 10.02 15.28V27.91C10.02 29.07 10.96 30.01 12.12 30.02H24.76C25.92 30.02 26.86 29.08 26.87 27.91V19.19C26.54 19.38 26.17 19.48 25.8 19.48C24.65 19.48 23.72 18.54 23.72 17.39L23.7 17.38ZM23.66 27.9H13.17C12.88 27.9 12.64 27.66 12.64 27.37C12.64 27.26 12.68 27.14 12.75 27.05L14.83 24.28C15.01 24.05 15.34 24 15.58 24.18C15.63 24.21 15.67 24.26 15.7 24.3L17.38 26.84L20.13 23.17C20.3 22.94 20.63 22.89 20.86 23.06C20.9 23.09 20.93 23.12 20.96 23.16L24.07 27.03C24.25 27.25 24.22 27.59 23.99 27.77C23.89 27.85 23.78 27.89 23.65 27.89L23.66 27.9Z" fill="#242424"/>
</g>
</g>
</g>
</g>
</g>
</g>
</g>
</svg>
